<?xml version="1.0" encoding="UTF-8" standalone="no"?>
<svg width="256px" height="256px" viewBox="0 0 256 256" version="1.1" xmlns="http://www.w3.org/2000/svg" xmlns:xlink="http://www.w3.org/1999/xlink">
    <title>Nantes.rb</title>
    <desc>Created by Julien Breux for Nantes.rb</desc>
    <defs></defs>
    <g id="Page-1" stroke="none" stroke-width="1" fill="none" fill-rule="evenodd">
        <g id="Logo" transform="translate(20.000000, 15.000000)">
            <path d="M109.378132,0.456351433 L0.222230709,172.037304 L48.8584966,220.581837 L168.649212,221.328049 L218.853041,172.715243 L109.378132,0.456351433 Z" id="Path-1" fill="#C90036"></path>
            <path d="M109.605067,4.30584346 L218.978494,172.706859 L168.60381,221.432256 L49.3166981,220.723174 L21.5599631,171.927109 L109.605067,4.30584346 Z" id="Path-6" fill="#8D0026"></path>
            <path d="M21.7630772,172.037304 L109.58244,4.31916868 L131.706493,58.3844615 L21.7630772,172.037304 Z" id="Path-2" fill="#720020"></path>
            <path d="M21.7565059,172.013348 L99.9666312,197.47141 L131.6991,58.3820659 L21.7565059,172.013348 Z" id="Path-3" fill="#B0002F"></path>
            <path d="M169.796209,154.025196 L177.125044,171.049141 L169.264528,220.753119 L99.4100089,197.274376 L101.534343,189.007348 L169.796209,154.025196 Z" id="Path-5" fill="#BB0031"></path>
            <path d="M131.690812,58.4267578 L170.65347,156.323123 L99.7290175,197.38517 L131.690812,58.4267578 Z" id="Path-4" fill="#F1003D"></path>
            <path d="M176.155779,116.283571 C176.155779,116.283571 155.920401,96.8950276 140.697794,96.8950276 C131.359401,96.8950276 120.280756,104.283842 120.280756,104.283842 C120.280756,104.283842 116.34215,100.92529 112.044172,100.92529 L110.68172,100.92529 L110.611952,100.92529 L109.246867,100.92529 C104.948889,100.92529 101.008967,104.283842 101.008967,104.283842 C101.008967,104.283842 89.9342702,96.8950276 80.5958775,96.8950276 C65.3732706,96.8950276 45.1378924,116.283571 45.1378924,116.283571 C45.1378924,116.283571 43.368679,137.27419 54.8080126,149.675098 C61.4333482,156.852765 73.0740878,160.088588 73.0740878,160.088588 L79.187352,153.082478 L79.1649735,221.979638 L102.803191,221.979638 L102.803191,188.173735 L106.833944,221.93345 L114.488688,221.93345 L118.491797,188.169776 L118.491797,221.979638 L142.019439,221.979638 L142.108952,153.082478 L148.219584,160.088588 C148.219584,160.088588 159.859007,156.852765 166.484343,149.675098 C177.923676,137.27419 176.155779,116.283571 176.155779,116.283571 L176.155779,116.283571 Z M94.2072365,122.538791 C96.0014611,122.538791 97.4547435,123.998343 97.4547435,125.797049 C97.4547435,127.594435 96.0014611,129.055306 94.2072365,129.055306 C92.4103791,129.055306 90.9557803,127.594435 90.9557803,125.797049 C90.9557803,123.998343 92.4103791,122.538791 94.2072365,122.538791 L94.2072365,122.538791 Z M100.833888,188.900872 C99.8768809,189.657041 98.1471589,188.543242 98.1471589,188.543242 C98.1471589,188.543242 92.3906335,184.957708 90.4450253,177.769483 C88.7468963,171.487869 89.1931488,155.149076 89.1931488,155.149076 L97.4284159,155.149076 C97.4284159,155.149076 97.1309143,175.618426 97.786471,179.566869 C98.4157002,183.333198 101.00765,186.298489 101.00765,186.298489 C101.00765,186.298489 102.084448,187.913761 100.833888,188.900872 L100.833888,188.900872 Z M127.087751,122.538791 C128.884609,122.538791 130.336575,123.998343 130.336575,125.797049 C130.336575,127.594435 128.884609,129.055306 127.087751,129.055306 C125.297476,129.055306 123.838928,127.594435 123.838928,125.797049 C123.838928,123.998343 125.297476,122.538791 127.087751,122.538791 L127.087751,122.538791 Z M130.848646,177.769483 C128.901722,184.957708 123.149145,188.543242 123.149145,188.543242 C123.149145,188.543242 121.42074,189.657041 120.465049,188.900872 C119.209223,187.913761 120.280756,186.298489 120.280756,186.298489 C120.280756,186.298489 122.881921,183.334518 123.505884,179.566869 C124.161441,175.618426 123.862623,155.149076 123.862623,155.149076 L132.103155,155.149076 C132.103155,155.149076 132.552041,171.487869 130.848646,177.769483 L130.848646,177.769483 Z" id="Shape" fill="#FFFFFF"></path>
        </g>
    </g>
</svg>